<svg width="24" height="24" viewBox="0 0 24 24" fill="none" xmlns="http://www.w3.org/2000/svg">
<g clip-path="url(#clip0_11222_841)">
<path d="M18.0077 0H5.99234C2.68286 0 0 2.68286 0 5.99234V18.0077C0 21.3171 2.68286 24 5.99234 24H18.0077C21.3171 24 24 21.3171 24 18.0077V5.99234C24 2.68286 21.3171 0 18.0077 0Z" fill="url(#paint0_linear_11222_841)"/>
<path d="M18.0077 0H5.99234C2.68286 0 0 2.68286 0 5.99234V18.0077C0 21.3171 2.68286 24 5.99234 24H18.0077C21.3171 24 24 21.3171 24 18.0077V5.99234C24 2.68286 21.3171 0 18.0077 0Z" fill="url(#paint1_radial_11222_841)"/>
<path fill-rule="evenodd" clip-rule="evenodd" d="M12.1971 21.0799C10.3969 21.0799 9.56037 20.8171 8.10623 19.7659C7.18643 20.9485 4.27377 21.8727 4.14674 20.2915C4.14674 19.1045 3.88394 18.1015 3.5861 17.0065C3.23133 15.6575 2.82837 14.1552 2.82837 11.9783C2.82837 6.77931 7.09446 2.86801 12.1489 2.86801C17.2078 2.86801 21.1717 6.97204 21.1717 12.0265C21.1886 17.0028 17.1734 21.0533 12.1971 21.0799ZM12.2716 7.36184C9.81004 7.23484 7.8916 8.93864 7.46675 11.6104C7.11635 13.8223 7.73831 16.516 8.26828 16.6561C8.52232 16.7175 9.1618 16.2006 9.56037 15.802C10.2194 16.2573 10.9869 16.5308 11.7854 16.5948C14.336 16.7175 16.5153 14.7758 16.6866 12.228C16.7863 9.67484 14.8225 7.51235 12.2716 7.36624V7.36184Z" fill="white"/>
</g>
<defs>
<linearGradient id="paint0_linear_11222_841" x1="2.82833" y1="18.2529" x2="24" y2="12" gradientUnits="userSpaceOnUse">
<stop stop-color="#44CCFF"/>
<stop offset="0.662" stop-color="#5533EE"/>
<stop offset="1" stop-color="#9933DD"/>
</linearGradient>
<radialGradient id="paint1_radial_11222_841" cx="0" cy="0" r="1" gradientUnits="userSpaceOnUse" gradientTransform="translate(-0.570979 -10.5404) rotate(51.356) scale(29.1244 12)">
<stop stop-color="#0000FF"/>
<stop offset="1" stop-opacity="0"/>
</radialGradient>
<clipPath id="clip0_11222_841">
<rect width="24" height="24" fill="white"/>
</clipPath>
</defs>
</svg>
