<svg width="24" height="24" viewBox="0 0 24 24" fill="none" xmlns="http://www.w3.org/2000/svg">
<rect x="6" y="5.5" width="13" height="12" fill="white"/>
<path d="M12.5 0C18.8515 0 24 5.14855 24 11.5C24 17.8514 18.8515 23 12.5 23C10.4677 23.0035 8.47108 22.4656 6.71551 21.4417L1.00462 23L2.55942 17.2868C1.53472 15.5307 0.996456 13.5332 1.00002 11.5C1.00002 5.14855 6.14857 0 12.5 0ZM8.58081 6.095L8.35081 6.1042C8.20211 6.11444 8.05681 6.1535 7.92301 6.2192C7.79832 6.28993 7.68446 6.37824 7.58491 6.4814C7.44691 6.61135 7.36871 6.72404 7.28476 6.83329C6.8594 7.38633 6.63038 8.0653 6.63386 8.76299C6.63616 9.32649 6.78336 9.87504 7.01336 10.3879C7.48371 11.4252 8.25766 12.5235 9.27886 13.5412C9.52496 13.7862 9.76646 14.0323 10.0264 14.2611C11.2953 15.3783 12.8074 16.1839 14.4424 16.614L15.0956 16.7141C15.3083 16.7256 15.5211 16.7095 15.735 16.6991C16.0698 16.6815 16.3968 16.5908 16.6929 16.4335C16.8434 16.3557 16.9903 16.2713 17.1334 16.1805C17.1334 16.1805 17.182 16.1475 17.2771 16.077C17.4324 15.962 17.5278 15.8803 17.6566 15.7458C17.7532 15.6461 17.8337 15.5304 17.8981 15.3985C17.9878 15.211 18.0775 14.8534 18.1143 14.5555C18.1419 14.3278 18.1339 14.2036 18.1304 14.1266C18.1258 14.0035 18.0235 13.8759 17.9119 13.8218L17.2426 13.5217C17.2426 13.5217 16.2421 13.0858 15.6303 12.8075C15.5663 12.7797 15.4977 12.7637 15.4279 12.7604C15.3492 12.7522 15.2697 12.7609 15.1947 12.7861C15.1197 12.8113 15.051 12.8524 14.9932 12.9064C14.9875 12.9041 14.9104 12.9697 14.079 13.9771C14.0312 14.0412 13.9655 14.0897 13.8901 14.1163C13.8148 14.1429 13.7332 14.1465 13.6558 14.1266C13.5808 14.1066 13.5074 14.0812 13.4361 14.0507C13.2935 13.9909 13.2441 13.9679 13.1463 13.9265C12.4861 13.6389 11.8749 13.2497 11.3351 12.773C11.1902 12.6465 11.0556 12.5085 10.9176 12.3751C10.4652 11.9418 10.0709 11.4517 9.74461 10.9169L9.67676 10.8077C9.62876 10.7339 9.58941 10.6548 9.55946 10.5719C9.51576 10.4029 9.62961 10.2672 9.62961 10.2672C9.62961 10.2672 9.90906 9.96129 10.039 9.79569C10.1655 9.63469 10.2725 9.47829 10.3415 9.36674C10.4772 9.14824 10.5197 8.92399 10.4484 8.75034C10.1264 7.96374 9.79368 7.18136 9.45021 6.4032C9.38236 6.2491 9.18111 6.1387 8.99826 6.11685C8.93616 6.10918 8.87406 6.10305 8.81196 6.09845C8.65755 6.08959 8.50272 6.09113 8.34851 6.10305L8.58081 6.095Z" fill="#25D366"/>
</svg>
