<svg width="36" height="36" viewBox="0 0 36 36" fill="none" xmlns="http://www.w3.org/2000/svg">
<path d="M18 18.375C18.3703 18.375 18.717 18.5572 18.9268 18.8623L21.3424 22.3734L25.4419 23.5771C25.7985 23.6818 26.0803 23.9559 26.1951 24.3093C26.3098 24.6628 26.2425 25.0502 26.0154 25.3443L23.4106 28.7163L23.5281 32.9689C23.5383 33.3396 23.3652 33.6915 23.0653 33.9098C22.7655 34.1279 22.3774 34.1843 22.0278 34.0605L18 32.6337L13.9722 34.0605C13.6226 34.1843 13.2345 34.1279 12.9346 33.9098C12.6348 33.6915 12.4617 33.3396 12.4719 32.9689L12.5894 28.7163L9.98467 25.3443C9.75751 25.0502 9.69024 24.6628 9.80493 24.3093C9.91962 23.9559 10.2015 23.6818 10.558 23.5771L14.6576 22.3734L17.0731 18.8623C17.2831 18.5572 17.6296 18.375 18 18.375Z" fill="white"/>
<path fill-rule="evenodd" clip-rule="evenodd" d="M4.5 1.875C3.87868 1.875 3.375 2.375 3.375 2.99177V12.616L17.9995 19.875L32.6245 12.616V2.99177C32.6245 2.375 32.1209 1.875 31.4995 1.875H4.5ZM10.875 7.5V10.5H13.125V7.5H10.875ZM16.875 7.5V12H19.125V7.5H16.875ZM22.875 7.5V10.5H25.125V7.5H22.875Z" fill="white"/>
</svg>
