<svg width="29" height="35" viewBox="0 0 29 35" fill="none" xmlns="http://www.w3.org/2000/svg">
<path fill-rule="evenodd" clip-rule="evenodd" d="M0 14.25C0 6.37994 6.37994 0 14.25 0C22.1201 0 28.5 6.37994 28.5 14.25C28.5 18.2498 26.6842 21.7554 24.2128 24.9644C22.1476 27.646 19.504 30.2667 16.8635 32.8843L16.8617 32.8861C16.3629 33.3806 15.8642 33.8749 15.3696 34.3696C14.7513 34.9879 13.7487 34.9879 13.1304 34.3696C12.6354 33.8746 12.1353 33.3788 11.6362 32.884C8.99565 30.2664 6.35241 27.646 4.28723 24.9644C1.81582 21.7554 0 18.2498 0 14.25ZM19 14.25C19 16.8734 16.8734 19 14.25 19C11.6266 19 9.5 16.8734 9.5 14.25C9.5 11.6266 11.6266 9.5 14.25 9.5C16.8734 9.5 19 11.6266 19 14.25Z" fill="#0C1625"/>
</svg>
