<svg width="30" height="30" viewBox="0 0 30 30" fill="none" xmlns="http://www.w3.org/2000/svg">
<path d="M3.125 6.5625C2.60724 6.5625 2.1875 6.98224 2.1875 7.5V14.0625H27.8125V7.5C27.8125 6.98224 27.3927 6.5625 26.875 6.5625H3.125Z" fill="#0C1625"/>
<path d="M27.8125 15.9375H22.1875V27.8125H26.875C27.3927 27.8125 27.8125 27.3927 27.8125 26.875V15.9375Z" fill="#0C1625"/>
<path d="M20.3125 27.8125V15.9375H9.6875V27.8125H20.3125Z" fill="#0C1625"/>
<path d="M7.8125 27.8125V15.9375H2.1875V26.875C2.1875 27.3927 2.60724 27.8125 3.125 27.8125H7.8125Z" fill="#0C1625"/>
<path fill-rule="evenodd" clip-rule="evenodd" d="M9.375 3.4375C9.375 2.74715 9.93465 2.1875 10.625 2.1875H19.375C20.0654 2.1875 20.625 2.74715 20.625 3.4375V7.8125H18.125V4.6875H11.875V7.8125H9.375V3.4375Z" fill="#0C1625"/>
</svg>
