<svg width="30" height="30" viewBox="0 0 30 30" fill="none" xmlns="http://www.w3.org/2000/svg">
<path fill-rule="evenodd" clip-rule="evenodd" d="M2.81271 2.49999C2.81272 1.98223 3.23245 1.5625 3.75021 1.5625H26.25C26.7677 1.5625 27.1875 1.98224 27.1875 2.5V16.3286C27.16 16.2987 27.1324 16.2691 27.1045 16.2399C25.9539 15.029 24.2369 14.0625 22.1875 14.0625C20.1381 14.0625 18.4211 15.029 17.2705 16.2399C16.1407 17.4288 15.3125 19.1076 15.3125 20.9375V25.3125C15.3125 26.4949 15.723 27.5815 16.4091 28.4375H3.75C3.50136 28.4375 3.2629 28.3388 3.08709 28.1629C2.91128 27.9871 2.8125 27.7486 2.8125 27.5L2.81271 2.49999ZM20 8.75H10V6.25H20V8.75ZM10 15H15V12.5H10V15Z" fill="#0C1625"/>
<path fill-rule="evenodd" clip-rule="evenodd" d="M18.6298 17.5314C19.4975 16.6181 20.747 15.9375 22.1875 15.9375C23.628 15.9375 24.8775 16.6181 25.7453 17.5314C26.6048 18.4357 27.1875 19.6699 27.1875 20.9375V24.6875H24.6875V20.9375C24.6875 20.4183 24.4309 19.7774 23.933 19.2535C23.4436 18.7385 22.818 18.4375 22.1875 18.4375C21.557 18.4375 20.9314 18.7385 20.442 19.2535C19.9441 19.7774 19.6875 20.4183 19.6875 20.9375V25.3125C19.6875 25.6576 19.9674 25.9375 20.3125 25.9375C20.6576 25.9375 20.9375 25.6576 20.9375 25.3125V20.9375H23.4375V25.3125C23.4375 27.0384 22.0384 28.4375 20.3125 28.4375C18.5866 28.4375 17.1875 27.0384 17.1875 25.3125V20.9375C17.1875 19.6699 17.7702 18.4357 18.6298 17.5314Z" fill="#0C1625"/>
</svg>
