<svg width="30" height="30" viewBox="0 0 30 30" fill="none" xmlns="http://www.w3.org/2000/svg">
<path fill-rule="evenodd" clip-rule="evenodd" d="M27.7711 4.71687L28.4375 5.04559V25.8919L26.7026 25.0501C26.4361 24.9435 26.0368 24.798 25.5238 24.6514C24.4965 24.358 23.0216 24.0625 21.25 24.0625C18.968 24.0625 16.919 24.5134 15.3967 25.2244C13.5878 26.0694 11.2606 26.5625 8.75 26.5625C7.34853 26.5625 5.42619 26.5553 2.15182 25.2455L1.5625 25.0097V4.24029L2.84817 4.75455C5.8058 5.9376 7.46649 5.93755 8.72701 5.9375H8.75C11.0321 5.9375 13.081 5.48659 14.6033 4.77558C16.4122 3.93068 18.7394 3.4375 21.25 3.4375C23.2284 3.4375 24.8785 3.76705 26.0387 4.09858C26.6195 4.26449 27.0795 4.43145 27.399 4.55924C27.5588 4.62316 27.6836 4.67737 27.7711 4.71687ZM10.9375 15.0001C10.9375 12.7565 12.7564 10.9377 15 10.9377C17.2436 10.9377 19.0625 12.7565 19.0625 15.0001C19.0625 17.2437 17.2436 19.0626 15 19.0626C12.7564 19.0626 10.9375 17.2437 10.9375 15.0001ZM7.56558 15.2715L8.50079 15.3369L8.36998 17.2074L7.43476 17.1419C6.98571 17.1105 6.54539 17.0632 6.11581 17.001L5.18799 16.8666L5.4567 15.011L6.38452 15.1454C6.76774 15.2009 7.16205 15.2432 7.56558 15.2715ZM23.8845 12.9991L24.8124 13.1335L24.5436 14.9891L23.6157 14.8547C23.2326 14.7992 22.8382 14.7569 22.4347 14.7286L21.4995 14.6632L21.6304 12.7929L22.5656 12.8582C23.0146 12.8896 23.455 12.9369 23.8845 12.9991Z" fill="#0C1625"/>
</svg>
