<svg width="30" height="30" viewBox="0 0 30 30" fill="none" xmlns="http://www.w3.org/2000/svg">
<path fill-rule="evenodd" clip-rule="evenodd" d="M6.61294 1.61693C8.37559 1.33088 10.0721 2.18367 11.2711 3.90851C12.1616 5.18966 12.3038 7.06988 12.1325 8.96409C11.9549 10.9295 11.4098 13.2068 10.618 15.5264C10.2736 16.5354 9.87881 17.5629 9.4412 18.5868C9.68666 18.308 9.94526 17.9505 10.2775 17.4911C10.3606 17.3761 10.4483 17.2548 10.5416 17.1268C11.0095 16.4845 11.5748 15.7369 12.2701 15.0309C12.7257 14.5684 13.2809 14.2328 13.9284 14.1429C14.5794 14.0525 15.164 14.2326 15.6325 14.5115C15.7812 14.5999 15.9226 14.7006 16.0569 14.8111C16.1447 14.6953 16.2356 14.5823 16.3295 14.4724C16.9906 13.6994 17.8954 12.9808 19.0243 12.7685C20.3204 12.5249 21.264 13.2553 21.8451 13.8281C22.131 14.1099 22.4044 14.4293 22.6426 14.7076C22.6559 14.7233 22.669 14.7386 22.6821 14.7538C22.944 15.0596 23.1742 15.3256 23.4121 15.558C23.892 16.0268 24.2445 16.1996 24.5872 16.209C24.9474 16.2188 25.6344 16.0558 26.7806 15.0615L28.4375 16.9256C27.0726 18.1094 25.7865 18.7233 24.5179 18.6886C23.2319 18.6535 22.3001 17.9604 21.6464 17.3218C21.3174 17.0004 21.0186 16.6521 20.7649 16.3559L20.7562 16.3458C20.4921 16.0373 20.2802 15.7899 20.0715 15.5841C19.6436 15.1624 19.5121 15.2001 19.4953 15.205C19.4945 15.2053 19.4941 15.2054 19.4937 15.2054C19.1476 15.2705 18.7106 15.532 18.2477 16.0733C18.0135 16.3473 17.7967 16.6656 17.6059 17.0063C17.9691 17.8411 18.2094 18.7796 18.2216 19.5886C18.2279 20.0069 18.1764 20.5291 17.9245 20.9934C17.6274 21.541 17.0639 21.9596 16.309 21.9596C15.6651 21.9596 15.1094 21.6673 14.7525 21.1739C14.4409 20.7431 14.3374 20.2419 14.3081 19.833C14.2486 19.0043 14.4578 18.0285 14.7939 17.1309C14.797 17.1223 14.8003 17.1136 14.8035 17.105C14.6306 16.8703 14.4665 16.7135 14.3369 16.6364C14.3052 16.6176 14.2836 16.6081 14.2706 16.6034C14.2413 16.6165 14.1738 16.6554 14.0699 16.7608C13.5096 17.3296 13.0328 17.9541 12.5799 18.5758C12.5065 18.6764 12.4321 18.7795 12.3569 18.8836C11.9959 19.384 11.6166 19.9096 11.2474 20.3134C10.8262 20.774 10.1391 21.401 9.17311 21.4116C8.82744 21.4155 8.50999 21.3408 8.21874 21.2125C6.84259 23.9359 5.19711 26.4921 3.43286 28.4375L1.5625 26.7823C3.29494 24.872 4.94915 22.2385 6.30926 19.4219C1.76096 13.5776 1.22296 8.25715 2.74844 4.89384C3.5301 3.17049 4.91339 1.89275 6.61294 1.61693ZM7.47391 16.7883C4.0986 11.922 4.08819 8.0068 5.04008 5.90814C5.58115 4.7152 6.37584 4.16929 7.02003 4.06474C7.60111 3.97044 8.41407 4.1806 9.20097 5.31268C9.56732 5.83972 9.79257 6.95974 9.63134 8.74346C9.47654 10.456 8.98929 12.5344 8.23852 14.7338C8.0061 15.4146 7.75025 16.1019 7.47391 16.7883Z" fill="#0C1625"/>
<path fill-rule="evenodd" clip-rule="evenodd" d="M23.8447 27.61H11.2891V25.1294H23.8447V27.61Z" fill="#0C1625"/>
</svg>
