<svg width="30" height="30" viewBox="0 0 30 30" fill="none" xmlns="http://www.w3.org/2000/svg">
<path fill-rule="evenodd" clip-rule="evenodd" d="M10.1562 21.5622V17.1875H12.6562V21.5622C12.6562 23.9786 14.6153 25.9376 17.0316 25.9376C19.4481 25.9376 21.4071 23.9786 21.4071 21.5622V19.6875H23.9071V21.5622C23.9071 25.3594 20.8289 28.4376 17.0316 28.4376C13.2345 28.4376 10.1562 25.3594 10.1562 21.5622Z" fill="#0C1625"/>
<path d="M6.89435 15.304L4.65016 9.69358L3.27641 8.89223C2.89239 8.66821 2.65625 8.25709 2.65625 7.8125V5.41226C2.65625 3.33345 4.28801 1.5625 6.40458 1.5625H7.65625V4.0625H6.40458C5.76156 4.0625 5.15625 4.61945 5.15625 5.41226V7.09454L11.4062 10.7404L17.6562 7.09454V5.41254C17.6562 4.61958 17.0509 4.0625 16.4076 4.0625H15.1562V1.5625H16.4076C18.5244 1.5625 20.1562 3.33358 20.1562 5.41254V7.8125C20.1562 8.25709 19.9201 8.66821 19.5361 8.89223L18.1658 9.69159L15.919 15.3085L11.3643 18.3145L6.89435 15.304Z" fill="#0C1625"/>
<path fill-rule="evenodd" clip-rule="evenodd" d="M22.6562 11.25C20.0674 11.25 17.9688 13.3486 17.9688 15.9375C17.9688 18.5264 20.0674 20.625 22.6562 20.625C25.2451 20.625 27.3438 18.5264 27.3438 15.9375C27.3438 13.3486 25.2451 11.25 22.6562 11.25ZM22.6479 14.0625C21.617 14.0625 20.7812 14.902 20.7812 15.9375C20.7812 16.973 21.617 17.8125 22.6479 17.8125H22.6646C23.6955 17.8125 24.5312 16.973 24.5312 15.9375C24.5312 14.902 23.6955 14.0625 22.6646 14.0625H22.6479Z" fill="#0C1625"/>
</svg>
