<svg width="122" height="23" viewBox="0 0 122 23" fill="none" xmlns="http://www.w3.org/2000/svg">
<path d="M0 4.83372V4.56149C0 3.00337 0.515708 1.8547 1.54712 1.11547C2.58306 0.371824 3.93793 0 5.61172 0C7.19051 0 8.4255 0.274442 9.31668 0.823326C10.2079 1.37221 10.71 2.22873 10.8231 3.3929L10.8434 3.61201H8.2174L8.19705 3.38626C8.12919 2.83295 7.87812 2.43678 7.44384 2.19775C7.00956 1.95429 6.39433 1.83256 5.59815 1.83256C4.71602 1.83256 4.01483 2.04061 3.4946 2.4567C2.97437 2.87279 2.71425 3.50799 2.71425 4.3623V5.01963C2.71425 5.95804 2.97211 6.62202 3.48782 7.01155C4.00805 7.39665 4.70923 7.5892 5.59136 7.5892C6.50516 7.5892 7.15658 7.45198 7.54563 7.17754C7.93467 6.89867 8.15633 6.51578 8.21062 6.02887L8.22419 5.80312H10.8434L10.8367 6.04215C10.7598 7.13549 10.2802 7.96988 9.3981 8.54532C8.52049 9.11634 7.26289 9.40185 5.62529 9.40185C3.91079 9.40185 2.54461 9.03224 1.52677 8.29301C0.508923 7.54937 0 6.39627 0 4.83372Z" fill="#0C1625"/>
<path d="M12.8354 0.199192H21.3989V9.20266H18.8068V2.12471H14.9865L14.7897 5.39146C14.7128 6.65743 14.4776 7.63789 14.084 8.33285C13.6904 9.02781 12.9214 9.37529 11.7769 9.37529C11.5552 9.37529 11.3607 9.36422 11.1933 9.34209C11.0259 9.31996 10.8721 9.28233 10.7319 9.22921V7.03147C10.8359 7.06688 10.9332 7.09122 11.0237 7.1045C11.1187 7.11336 11.2137 7.11778 11.3087 7.11778C11.7429 7.11778 12.046 6.9695 12.2179 6.67292C12.3898 6.37192 12.5029 5.85181 12.5572 5.11259L12.8354 0.199192Z" fill="#0C1625"/>
<path d="M24.0287 7.15098C24.1645 7.18639 24.307 7.21517 24.4562 7.2373C24.61 7.255 24.7819 7.26386 24.9719 7.26386C25.3112 7.26386 25.6053 7.21517 25.8541 7.11778C26.1029 7.01597 26.3381 6.80129 26.5598 6.47373L26.4987 6.59325L22.1016 0.199192H25.0194L27.3537 3.78464C27.4985 4.02367 27.5957 4.1963 27.6455 4.30254C27.6952 4.40435 27.7518 4.52608 27.8151 4.66773H27.8558C27.9146 4.52608 27.9689 4.40435 28.0187 4.30254C28.073 4.20073 28.1657 4.03031 28.2969 3.79128L30.4751 0.199192H33.1283L29.0365 6.63972C28.3987 7.63568 27.8332 8.34392 27.3401 8.76443C26.8516 9.18495 26.1549 9.39521 25.2502 9.39521C24.9471 9.39521 24.7028 9.38193 24.5173 9.35537C24.3318 9.33324 24.169 9.29782 24.0287 9.24913V7.15098Z" fill="#0C1625"/>
<path d="M39.3342 9.20266V0.199192H41.9059V9.20266H39.3342ZM45.9162 9.20266L42.2723 5.21882L44.1927 3.72488L49.1665 9.20266H45.9162ZM40.6166 3.64521H42.6863L46.0384 0.199192H48.8815L43.7245 5.59729H40.6166V3.64521ZM32.1617 9.20266L37.122 3.76472L38.9609 5.21882L35.3171 9.20266H32.1617ZM40.6166 3.64521V5.59729H37.3595L32.3042 0.199192H35.256L38.5538 3.64521H40.6166Z" fill="#0C1625"/>
<path d="M49.3535 9.20266V0.199192H57.7542V2.08487H51.9457V3.35306H54.8431C56.0238 3.35306 56.915 3.5943 57.5167 4.07679C58.1228 4.55928 58.4259 5.28079 58.4259 6.24134C58.4259 7.21517 58.1228 7.95217 57.5167 8.45237C56.9105 8.95256 56.017 9.20266 54.8363 9.20266H49.3535ZM51.9457 5.07275V7.43649H54.4292C54.9585 7.43649 55.3385 7.34353 55.5692 7.15762C55.8044 6.96728 55.922 6.66628 55.922 6.25462C55.922 5.85181 55.8044 5.55523 55.5692 5.3649C55.3385 5.17013 54.9585 5.07275 54.4292 5.07275H51.9457Z" fill="#0C1625"/>
<path d="M58.2669 9.20266L62.7047 0.165993H65.2493L69.7007 9.20266H66.8236L64.1975 3.43274C64.1251 3.2601 64.0618 3.09411 64.0075 2.93476C63.9578 2.77098 63.908 2.6249 63.8582 2.49654H63.8107C63.7655 2.6249 63.7157 2.77098 63.6615 2.93476C63.6117 3.09411 63.5506 3.2601 63.4783 3.43274L60.8319 9.20266H58.2669ZM60.5129 7.48297L61.2186 5.73008H66.62L67.3189 7.48297H60.5129Z" fill="#0C1625"/>
<path d="M0.536065 22.8008V13.7973H10.2734V22.8008H7.68134V15.7229H3.12818V22.8008H0.536065Z" fill="#0C1625"/>
<path d="M11.458 18.3987V18.1464C11.458 16.6015 11.9895 15.4573 13.0526 14.7136C14.1157 13.97 15.4637 13.5982 17.0968 13.5982C18.7254 13.5982 20.0757 13.97 21.1478 14.7136C22.2245 15.4573 22.7628 16.6015 22.7628 18.1464V18.3987C22.7628 19.9701 22.2245 21.1298 21.1478 21.8779C20.0757 22.626 18.7254 23 17.0968 23C15.4637 23 14.1157 22.626 13.0526 21.8779C11.9895 21.1298 11.458 19.9701 11.458 18.3987ZM14.1383 18.5779C14.1383 19.5208 14.4074 20.1892 14.9458 20.5831C15.4841 20.9771 16.2034 21.1763 17.1036 21.1807C17.9993 21.1896 18.7186 20.9948 19.2614 20.5964C19.8088 20.1936 20.0825 19.523 20.0825 18.5846V17.987C20.0825 17.0619 19.8088 16.4068 19.2614 16.0217C18.7186 15.6365 17.9993 15.4418 17.1036 15.4374C16.1988 15.4329 15.4773 15.6255 14.939 16.015C14.4052 16.4045 14.1383 17.0619 14.1383 17.987V18.5779Z" fill="#0C1625"/>
<path d="M34.5503 22.8008L30.4993 18.7904L32.311 17.3562L37.7938 22.8008H34.5503ZM28.7282 17.2434H30.886L34.5231 13.7973H37.4817L31.4967 19.1954H28.7282V17.2434ZM27.4321 22.8008V13.7973H30.0243V22.8008H27.4321Z" fill="#0C1625"/>
<path d="M37.4448 18.3987V18.1464C37.4448 16.6015 37.9763 15.4573 39.0394 14.7136C40.1025 13.97 41.4505 13.5982 43.0836 13.5982C44.7122 13.5982 46.0625 13.97 47.1346 14.7136C48.2113 15.4573 48.7496 16.6015 48.7496 18.1464V18.3987C48.7496 19.9701 48.2113 21.1298 47.1346 21.8779C46.0625 22.626 44.7122 23 43.0836 23C41.4505 23 40.1025 22.626 39.0394 21.8779C37.9763 21.1298 37.4448 19.9701 37.4448 18.3987ZM40.1251 18.5779C40.1251 19.5208 40.3942 20.1892 40.9326 20.5831C41.4709 20.9771 42.1902 21.1763 43.0904 21.1807C43.9861 21.1896 44.7054 20.9948 45.2482 20.5964C45.7956 20.1936 46.0693 19.523 46.0693 18.5846V17.987C46.0693 17.0619 45.7956 16.4068 45.2482 16.0217C44.7054 15.6365 43.9861 15.4418 43.0904 15.4374C42.1857 15.4329 41.4641 15.6255 40.9258 16.015C40.392 16.4045 40.1251 17.0619 40.1251 17.987V18.5779Z" fill="#0C1625"/>
<path d="M49.9273 22.8008V13.7973H52.5127V17.1637H57.1608V13.7973H59.7529V22.8008H57.1608V19.1423H52.5127V22.8008H49.9273Z" fill="#0C1625"/>
<path d="M60.5439 15.7361V13.7973H70.2948V15.7361H66.7256V22.8008H64.1199V15.7361H60.5439Z" fill="#0C1625"/>
<path d="M71.079 22.8008V13.7973H76.3107C77.6135 13.7973 78.6065 14.0629 79.2896 14.5941C79.9772 15.1253 80.321 15.9198 80.321 16.9778C80.321 18.0091 79.9817 18.8081 79.3032 19.3747C78.6246 19.9369 77.6181 20.2069 76.2836 20.1848H73.6711V22.8008H71.079ZM73.6711 18.4186H75.8561C76.5391 18.4186 77.0232 18.3035 77.3082 18.0733C77.5932 17.8387 77.7357 17.4802 77.7357 16.9977C77.7357 16.5196 77.5932 16.1744 77.3082 15.9619C77.0232 15.745 76.5391 15.6365 75.8561 15.6365H73.6711V18.4186Z" fill="#0C1625"/>
<path d="M80.0195 22.8008L84.4573 13.7641H87.0019L91.4532 22.8008H88.5761L85.9501 17.0309C85.8777 16.8583 85.8144 16.6923 85.7601 16.5329C85.7103 16.3691 85.6606 16.2231 85.6108 16.0947H85.5633C85.5181 16.2231 85.4683 16.3691 85.414 16.5329C85.3643 16.6923 85.3032 16.8583 85.2308 17.0309L82.5844 22.8008H80.0195ZM82.2655 21.0811L82.9712 19.3282H88.3726L89.0715 21.0811H82.2655Z" fill="#0C1625"/>
<path d="M99.0366 22.8008L94.9856 18.7904L96.7973 17.3562L102.28 22.8008H99.0366ZM93.2145 17.2434H95.3724L99.0095 13.7973H101.968L95.9831 19.1954H93.2145V17.2434ZM91.9185 22.8008V13.7973H94.5106V22.8008H91.9185Z" fill="#0C1625"/>
<path d="M101.544 15.7361V13.7973H111.295V15.7361H107.726V22.8008H105.12V15.7361H101.544Z" fill="#0C1625"/>
<path d="M112.9 20.7491C113.036 20.7845 113.179 20.8133 113.328 20.8355C113.482 20.8532 113.654 20.862 113.844 20.862C114.183 20.862 114.477 20.8133 114.726 20.7159C114.975 20.6141 115.21 20.3994 115.432 20.0719L115.37 20.1914L110.973 13.7973H113.891L116.225 17.3828C116.37 17.6218 116.467 17.7945 116.517 17.9007C116.567 18.0025 116.624 18.1242 116.687 18.2659H116.728C116.786 18.1242 116.841 18.0025 116.89 17.9007C116.945 17.7989 117.037 17.6285 117.169 17.3894L119.347 13.7973H122L117.908 20.2379C117.27 21.2338 116.705 21.9421 116.212 22.3626C115.723 22.7831 115.027 22.9934 114.122 22.9934C113.819 22.9934 113.575 22.9801 113.389 22.9535C113.204 22.9314 113.041 22.896 112.9 22.8473V20.7491Z" fill="#0C1625"/>
</svg>
