<svg width="155" height="29" viewBox="0 0 155 29" fill="none" xmlns="http://www.w3.org/2000/svg">
<path d="M0 6.09469V5.75144C0 3.78686 0.655203 2.33853 1.96561 1.40647C3.28176 0.468822 5.00311 0 7.12964 0C9.13548 0 10.7045 0.346035 11.8368 1.03811C12.969 1.73018 13.607 2.81014 13.7506 4.278L13.7765 4.55427H10.4401L10.4143 4.26963C10.3281 3.57198 10.0091 3.07246 9.45734 2.77107C8.90559 2.46411 8.12394 2.31062 7.1124 2.31062C5.99166 2.31062 5.10081 2.57294 4.43986 3.09757C3.77891 3.62221 3.44844 4.42311 3.44844 5.50029V6.3291C3.44844 7.51232 3.77604 8.3495 4.43124 8.84065C5.09219 9.32621 5.98304 9.569 7.10378 9.569C8.26475 9.569 9.09238 9.39598 9.58666 9.04994C10.0809 8.69833 10.3626 8.21555 10.4315 7.60162L10.4488 7.31697H13.7765L13.7679 7.61836C13.6702 8.99692 13.061 10.049 11.9402 10.7745C10.8252 11.4945 9.22744 11.8545 7.14689 11.8545C4.96862 11.8545 3.23291 11.3885 1.93975 10.4564C0.646582 9.51876 0 8.06486 0 6.09469Z" fill="white"/>
<path d="M16.3073 0.251155H27.1871V11.6033H23.8939V2.67898H19.0402L18.7902 6.79792C18.6925 8.39415 18.3936 9.63039 17.8936 10.5066C17.3936 11.3829 16.4165 11.821 14.9624 11.821C14.6808 11.821 14.4337 11.8071 14.221 11.7792C14.0084 11.7513 13.8129 11.7038 13.6348 11.6368V8.86576C13.767 8.91041 13.8905 8.94111 14.0055 8.95785C14.1262 8.96901 14.2469 8.9746 14.3676 8.9746C14.9193 8.9746 15.3044 8.78762 15.5228 8.41368C15.7412 8.03416 15.8849 7.37837 15.9538 6.4463L16.3073 0.251155Z" fill="white"/>
<path d="M30.5283 9.01645C30.7007 9.0611 30.8818 9.09738 31.0715 9.12529C31.2669 9.14761 31.4853 9.15878 31.7267 9.15878C32.1577 9.15878 32.5313 9.09738 32.8474 8.9746C33.1635 8.84623 33.4624 8.57554 33.744 8.16253L33.6664 8.31322L28.0799 0.251155H31.787L34.7527 4.77194C34.9366 5.07333 35.0601 5.29099 35.1234 5.42494C35.1866 5.55331 35.2584 5.70679 35.3389 5.88539H35.3906C35.4653 5.70679 35.5343 5.55331 35.5975 5.42494C35.6665 5.29657 35.7843 5.0817 35.951 4.78031L38.7184 0.251155H42.0892L36.8907 8.37182C36.0803 9.6276 35.3619 10.5206 34.7354 11.0508C34.1147 11.581 33.2296 11.8461 32.0801 11.8461C31.695 11.8461 31.3847 11.8294 31.149 11.7959C30.9134 11.768 30.7065 11.7233 30.5283 11.662V9.01645Z" fill="white"/>
<path d="M49.9737 11.6033V0.251155H53.2411V11.6033H49.9737ZM58.3362 11.6033L53.7067 6.58025L56.1464 4.69659L62.4657 11.6033H58.3362ZM51.6031 4.59613H54.2325L58.4914 0.251155H62.1036L55.5516 7.05745H51.6031V4.59613ZM40.8612 11.6033L47.1632 4.74682L49.4996 6.58025L44.87 11.6033H40.8612ZM51.6031 4.59613V7.05745H47.465L41.0423 0.251155H44.7924L48.9823 4.59613H51.6031Z" fill="white"/>
<path d="M62.7033 11.6033V0.251155H73.3762V2.62875H65.9965V4.22777H69.6777C71.1778 4.22777 72.3101 4.53195 73.0745 5.1403C73.8446 5.74865 74.2297 6.65839 74.2297 7.86951C74.2297 9.09738 73.8446 10.0267 73.0745 10.6573C72.3043 11.288 71.1692 11.6033 69.6691 11.6033H62.7033ZM65.9965 6.39607V9.37644H69.1519C69.8243 9.37644 70.3071 9.25924 70.6002 9.02483C70.8991 8.78483 71.0485 8.40531 71.0485 7.88626C71.0485 7.37837 70.8991 7.00443 70.6002 6.76443C70.3071 6.51886 69.8243 6.39607 69.1519 6.39607H65.9965Z" fill="white"/>
<path d="M74.0276 11.6033L79.6658 0.209296H82.8987L88.5541 11.6033H84.8988L81.5624 4.32823C81.4705 4.11057 81.39 3.90127 81.321 3.70035C81.2578 3.49384 81.1946 3.30966 81.1314 3.14781H81.071C81.0136 3.30966 80.9503 3.49384 80.8814 3.70035C80.8182 3.90127 80.7406 4.11057 80.6486 4.32823L77.2864 11.6033H74.0276ZM76.8812 9.43505L77.7778 7.22488H84.6402L85.5281 9.43505H76.8812Z" fill="white"/>
<path d="M0.681066 28.7488V17.3967H13.0523V28.7488H9.75908V19.8245H3.97432V28.7488H0.681066Z" fill="white"/>
<path d="M14.5572 23.1983V22.8802C14.5572 20.9324 15.2326 19.4896 16.5832 18.552C17.9338 17.6143 19.6466 17.1455 21.7214 17.1455C23.7904 17.1455 25.506 17.6143 26.8682 18.552C28.236 19.4896 28.92 20.9324 28.92 22.8802V23.1983C28.92 25.1797 28.236 26.6419 26.8682 27.5852C25.506 28.5284 23.7904 29 21.7214 29C19.6466 29 17.9338 28.5284 16.5832 27.5852C15.2326 26.6419 14.5572 25.1797 14.5572 23.1983ZM17.9626 23.4244C17.9626 24.6132 18.3045 25.4559 18.9885 25.9527C19.6724 26.4494 20.5863 26.7005 21.73 26.7061C22.868 26.7173 23.7818 26.4717 24.4715 25.9694C25.1669 25.4615 25.5146 24.616 25.5146 23.4327V22.6793C25.5146 21.5128 25.1669 20.6868 24.4715 20.2012C23.7818 19.7156 22.868 19.4701 21.73 19.4645C20.5805 19.4589 19.6638 19.7017 18.9799 20.1928C18.3017 20.684 17.9626 21.5128 17.9626 22.6793V23.4244Z" fill="white"/>
<path d="M43.8958 28.7488L38.7491 23.6923L41.0509 21.8839L48.0167 28.7488H43.8958ZM36.4989 21.7416H39.2405L43.8614 17.3967H47.6202L40.0164 24.2029H36.4989V21.7416ZM34.8523 28.7488V17.3967H38.1456V28.7488H34.8523Z" fill="white"/>
<path d="M47.5733 23.1983V22.8802C47.5733 20.9324 48.2486 19.4896 49.5992 18.552C50.9499 17.6143 52.6626 17.1455 54.7374 17.1455C56.8064 17.1455 58.522 17.6143 59.8842 18.552C61.2521 19.4896 61.936 20.9324 61.936 22.8802V23.1983C61.936 25.1797 61.2521 26.6419 59.8842 27.5852C58.522 28.5284 56.8064 29 54.7374 29C52.6626 29 50.9499 28.5284 49.5992 27.5852C48.2486 26.6419 47.5733 25.1797 47.5733 23.1983ZM50.9786 23.4244C50.9786 24.6132 51.3206 25.4559 52.0045 25.9527C52.6884 26.4494 53.6023 26.7005 54.746 26.7061C55.884 26.7173 56.7978 26.4717 57.4875 25.9694C58.1829 25.4615 58.5307 24.616 58.5307 23.4327V22.6793C58.5307 21.5128 58.1829 20.6868 57.4875 20.2012C56.7978 19.7156 55.884 19.4701 54.746 19.4645C53.5965 19.4589 52.6798 19.7017 51.9959 20.1928C51.3177 20.684 50.9786 21.5128 50.9786 22.6793V23.4244Z" fill="white"/>
<path d="M63.4323 28.7488V17.3967H66.7169V21.6412H72.6224V17.3967H75.9156V28.7488H72.6224V24.136H66.7169V28.7488H63.4323Z" fill="white"/>
<path d="M76.9205 19.8412V17.3967H89.309V19.8412H84.7743V28.7488H81.4638V19.8412H76.9205Z" fill="white"/>
<path d="M90.3053 28.7488V17.3967H96.9521C98.6074 17.3967 99.8689 17.7315 100.737 18.4013C101.61 19.071 102.047 20.0728 102.047 21.4068C102.047 22.7072 101.616 23.7146 100.754 24.429C99.8919 25.1378 98.6131 25.4783 96.9176 25.4503H93.5985V28.7488H90.3053ZM93.5985 23.2234H96.3745C97.2424 23.2234 97.8573 23.0783 98.2194 22.7881C98.5815 22.4923 98.7626 22.0402 98.7626 21.4319C98.7626 20.8291 98.5815 20.3938 98.2194 20.1259C97.8573 19.8524 97.2424 19.7156 96.3745 19.7156H93.5985V23.2234Z" fill="white"/>
<path d="M101.664 28.7488L107.302 17.3548H110.535L116.191 28.7488H112.535L109.199 21.4737C109.107 21.2561 109.026 21.0468 108.958 20.8458C108.894 20.6393 108.831 20.4552 108.768 20.2933H108.707C108.65 20.4552 108.587 20.6393 108.518 20.8458C108.455 21.0468 108.377 21.2561 108.285 21.4737L104.923 28.7488H101.664ZM104.518 26.5805L105.414 24.3704H112.277L113.165 26.5805H104.518Z" fill="white"/>
<path d="M125.825 28.7488L120.678 23.6923L122.98 21.8839L129.946 28.7488H125.825ZM118.428 21.7416H121.17L125.791 17.3967H129.55L121.946 24.2029H118.428V21.7416ZM116.782 28.7488V17.3967H120.075V28.7488H116.782Z" fill="white"/>
<path d="M129.011 19.8412V17.3967H141.4V19.8412H136.865V28.7488H133.555V19.8412H129.011Z" fill="white"/>
<path d="M143.439 26.162C143.612 26.2066 143.793 26.2429 143.982 26.2708C144.178 26.2931 144.396 26.3043 144.637 26.3043C145.069 26.3043 145.442 26.2429 145.758 26.1201C146.074 25.9917 146.373 25.721 146.655 25.308L146.577 25.4587L140.991 17.3967H144.698L147.663 21.9174C147.847 22.2188 147.971 22.4365 148.034 22.5704C148.097 22.6988 148.169 22.8523 148.25 23.0309H148.301C148.376 22.8523 148.445 22.6988 148.508 22.5704C148.577 22.4421 148.695 22.2272 148.862 21.9258L151.629 17.3967H155L149.801 25.5173C148.991 26.7731 148.273 27.6661 147.646 28.1963C147.025 28.7265 146.14 28.9916 144.991 28.9916C144.606 28.9916 144.295 28.9749 144.06 28.9414C143.824 28.9135 143.617 28.8688 143.439 28.8074V26.162Z" fill="white"/>
</svg>
